<svg xmlns="http://www.w3.org/2000/svg" xmlns:xlink="http://www.w3.org/1999/xlink" version="1.0" x="0px" y="0px" viewBox="0 0 100 125" enable-background="new 0 0 100 100" xml:space="preserve"><g><path fill="#000000" d="M37.856,6c4.41,0,7.987,3.575,7.987,7.986c0,4.41-3.577,7.985-7.987,7.985   c-4.411,0-7.985-3.575-7.985-7.985C29.872,9.575,33.446,6,37.856,6z"/></g><path fill="#000000" d="M66.659,32.311c-3.598,0-6.706-0.714-8.188-1.75l-4.514,3.915l-2.816-7.647  c-0.664-1.802-2.402-2.892-4.224-2.816l-0.007-0.067l-3.056-0.001l-0.667,2.559c-0.214,0.462-0.344,0.962-0.385,1.477l-3.447,13.224  h2.032v16.392H30.896V41.203h5.794l-4.5-17.264l-3.178-0.001l-0.01,0.113c-0.203-0.025-0.408-0.043-0.619-0.043  c-2.721,0-4.926,2.206-4.926,4.926v14.829c0,2.63,2.062,4.771,4.656,4.913l-1.545,41.796c0,2.471,2.006,4.477,4.476,4.477  c2.476,0,4.479-2.006,4.479-4.477l2.468-28.323h0.146l2.45,28.323c0,2.471,2.004,4.477,4.477,4.477c2.472,0,4.475-2.006,4.475-4.477  l-1.522-47.186l0.009,0.024c0.49,1.328,1.601,2.331,2.971,2.684c0.354,0.091,0.716,0.136,1.073,0.136  c1.025,0,2.032-0.367,2.824-1.055l11.835-10.267h1.562c2.001,0,3.678-1.364,4.165-3.211C70.882,32.042,68.861,32.311,66.659,32.311z  "/><path fill="#000000" d="M41.082,23.321c0,0-1.816,0.202-3.058,0.502c-1.242-0.3-3.058-0.502-3.058-0.502  c-0.572,0-1.036,0.464-1.036,1.036v0.469c0,0.572,0.463,1.036,1.036,1.036c0,0,1.816-0.201,3.058-0.501  c1.242,0.3,3.058,0.501,3.058,0.501c0.572,0,1.036-0.464,1.036-1.036v-0.469C42.118,23.786,41.653,23.321,41.082,23.321z"/><path fill="#000000" d="M79.255,26.378c0-1.644-5.64-2.977-12.596-2.977s-12.596,1.333-12.596,2.977  c0,0.799,1.331,1.523,3.494,2.058c0.258,1.644,4.234,2.951,9.102,2.951c4.868,0,8.843-1.307,9.101-2.951  C77.924,27.901,79.255,27.177,79.255,26.378z"/><path fill="#000000" d="M65.211,9.272c-0.514,0.982-0.798,2.022-0.616,2.9c0.175,0.881,0.768,1.568,1.565,2.194  c0.459,0.377,0.912,0.856,1.19,1.484c0.286,0.622,0.312,1.4,0.07,2.016c-0.234,0.62-0.637,1.097-1.083,1.47  c-0.452,0.365-0.94,0.664-1.479,0.837c0.364-0.427,0.703-0.844,0.972-1.288c0.271-0.436,0.479-0.89,0.544-1.316  c0.065-0.428-0.008-0.799-0.207-1.151c-0.195-0.353-0.507-0.681-0.886-0.985c-0.203-0.167-0.451-0.38-0.655-0.599  c-0.208-0.227-0.403-0.471-0.569-0.741c-0.333-0.539-0.547-1.187-0.543-1.833c-0.001-0.646,0.198-1.258,0.506-1.761  C64.334,9.998,64.727,9.567,65.211,9.272z"/><path fill="#000000" d="M69.222,8.411c-0.336,0.653-0.593,1.307-0.706,1.954c-0.117,0.645-0.083,1.261,0.109,1.803  c0.184,0.546,0.528,1.027,0.957,1.468c0.223,0.221,0.438,0.419,0.718,0.634c0.322,0.263,0.631,0.582,0.881,0.974  c0.25,0.389,0.417,0.868,0.454,1.351c0.036,0.485-0.061,0.953-0.216,1.36c-0.324,0.815-0.844,1.426-1.396,1.948  c-0.556,0.521-1.163,0.952-1.798,1.321c-0.635,0.367-1.292,0.689-1.986,0.916c1.066-0.979,2.1-1.96,2.918-3.026  c0.399-0.531,0.744-1.093,0.891-1.63c0.15-0.542,0.084-0.976-0.193-1.387c-0.138-0.208-0.331-0.407-0.562-0.593  c-0.278-0.228-0.597-0.506-0.857-0.808c-0.538-0.601-0.973-1.37-1.117-2.217c-0.147-0.847,0.025-1.708,0.389-2.402  C68.077,9.384,68.588,8.802,69.222,8.411z"/><text x="0" y="115" fill="#000000" font-size="5px" font-weight="bold" font-family="'Helvetica Neue', Helvetica, Arial-Unicode, Arial, Sans-serif">Created by chris dawson</text><text x="0" y="120" fill="#000000" font-size="5px" font-weight="bold" font-family="'Helvetica Neue', Helvetica, Arial-Unicode, Arial, Sans-serif">from the Noun Project</text></svg>